<?xml version="1.0" standalone="no"?>
<!DOCTYPE svg PUBLIC "-//W3C//DTD SVG 20010904//EN"
 "http://www.w3.org/TR/2001/REC-SVG-20010904/DTD/svg10.dtd">
<svg version="1.0" xmlns="http://www.w3.org/2000/svg"
 width="500.000000pt" height="500.000000pt" viewBox="0 0 500.000000 500.000000"
 preserveAspectRatio="xMidYMid meet">
<metadata>
Created by potrace 1.14, written by Peter Selinger 2001-2017
</metadata>
<g transform="translate(0.000000,500.000000) scale(0.100000,-0.100000)"
fill="#000000" stroke="none">
<path d="M0 2500 l0 -2500 2500 0 2500 0 0 2500 0 2500 -2500 0 -2500 0 0
-2500z m2760 1899 c225 -25 504 -124 722 -255 84 -51 237 -167 320 -243 270
-248 477 -624 559 -1011 30 -146 38 -477 15 -637 -93 -632 -490 -1168 -1068
-1442 -384 -182 -809 -229 -1233 -136 -259 57 -563 207 -780 385 -279 229
-514 580 -610 914 -63 219 -69 271 -70 546 0 229 2 266 23 365 129 612 519
1106 1071 1359 328 150 656 199 1051 155z"/>
<path d="M2350 4260 c0 -27 5 -50 10 -50 6 0 10 7 10 15 0 20 19 19 43 -2 19
-17 20 -17 10 1 -8 14 -8 25 0 37 17 28 1 49 -38 49 l-35 0 0 -50z m63 26 c7
-17 -11 -36 -35 -36 -13 0 -18 8 -18 25 0 20 5 25 24 25 13 0 26 -6 29 -14z"/>
<path d="M2590 4309 c0 -4 7 -23 15 -43 9 -20 13 -41 10 -46 -4 -6 -1 -10 4
-10 6 0 11 8 11 18 0 9 9 28 20 42 29 37 24 50 -5 15 -14 -16 -25 -25 -25 -19
0 11 -29 53 -30 43z"/>
<path d="M2203 4290 c-50 -20 -32 -100 23 -100 51 0 73 66 32 94 -25 18 -25
18 -55 6z m58 -31 c9 -18 7 -25 -9 -41 -16 -16 -23 -18 -41 -9 -20 11 -29 50
-14 64 14 15 53 6 64 -14z"/>
<path d="M2737 4272 c-10 -10 -17 -25 -17 -34 0 -22 33 -48 61 -48 33 0 49 17
49 52 0 45 -61 65 -93 30z m68 -8 c19 -20 16 -43 -7 -58 -35 -22 -74 27 -48
59 16 19 35 19 55 -1z"/>
<path d="M2057 4263 c-10 -3 -16 -11 -13 -18 3 -8 8 -30 12 -49 3 -20 11 -36
16 -36 5 0 7 9 3 19 -4 14 1 22 22 29 l28 10 -32 1 c-41 1 -44 23 -5 38 21 8
22 11 7 11 -11 0 -28 -2 -38 -5z"/>
<path d="M2900 4229 c-10 -35 -9 -44 6 -60 35 -39 72 -17 79 48 l5 38 -14 -40
c-10 -32 -18 -40 -37 -40 -22 0 -24 3 -22 48 2 26 1 47 -2 47 -2 0 -9 -18 -15
-41z"/>
<path d="M3056 4180 c-19 -49 -21 -72 -3 -48 14 18 28 13 45 -17 10 -18 11
-18 12 -2 0 10 7 25 15 33 23 23 18 42 -15 59 -16 8 -31 15 -33 15 -3 0 -12
-18 -21 -40z m48 14 c23 -9 20 -44 -3 -44 -23 0 -35 15 -27 35 6 17 8 17 30 9z"/>
<path d="M1875 4185 c17 -52 17 -72 0 -79 -23 -8 -32 -1 -55 42 -22 43 -27 27
-6 -23 15 -35 34 -43 70 -29 21 8 21 64 0 90 -15 19 -16 19 -9 -1z"/>
<path d="M1672 4114 c-27 -18 -29 -55 -4 -77 23 -21 41 -21 70 -1 27 18 29 55
4 77 -23 21 -41 21 -70 1z m68 -24 c13 -25 -10 -53 -41 -48 -30 4 -39 46 -14
64 20 15 42 8 55 -16z"/>
<path d="M3290 4105 c-10 -13 -10 -19 4 -33 9 -10 16 -24 16 -30 0 -18 -28
-14 -39 6 -10 16 -10 16 -11 0 0 -20 35 -42 56 -34 19 7 18 35 -3 58 -20 23
-9 36 17 20 11 -7 20 -8 20 -2 0 8 -31 30 -43 30 -3 0 -10 -7 -17 -15z"/>
<path d="M1571 4032 c-1 -29 -3 -32 -20 -22 -37 19 -46 10 -11 -12 19 -13 41
-29 48 -38 12 -13 13 -12 6 5 -4 11 -10 38 -14 60 -7 39 -8 39 -9 7z"/>
<path d="M3403 4016 c-18 -39 -13 -60 17 -76 18 -10 25 -7 50 20 29 31 38 50
23 50 -5 0 -16 -14 -25 -30 -19 -33 -39 -38 -58 -15 -10 12 -8 21 10 50 12 19
17 35 11 35 -6 0 -19 -15 -28 -34z"/>
<path d="M3536 3926 c-14 -19 -26 -41 -26 -48 0 -8 4 -7 11 4 9 17 12 17 34 2
48 -31 83 10 45 52 -13 13 -27 24 -31 24 -3 0 -18 -15 -33 -34z m48 8 c23 -9
20 -44 -3 -44 -24 0 -33 13 -25 34 7 18 7 18 28 10z"/>
<path d="M1372 3891 l-2 -44 -25 23 c-37 35 -30 11 10 -35 35 -39 35 -39 29
-11 -7 28 -6 29 25 24 44 -6 49 8 7 16 -30 6 -35 11 -39 39 -3 26 -4 24 -5
-12z"/>
<path d="M3651 3833 c-32 -39 -42 -64 -16 -43 12 10 18 10 29 0 8 -6 25 -10
38 -8 32 4 34 38 5 66 l-25 23 -31 -38z m65 -32 c-10 -16 -31 -14 -46 4 -10
12 -10 18 0 31 12 13 15 13 33 -4 11 -11 16 -25 13 -31z"/>
<path d="M1250 3813 c0 -4 10 -18 23 -31 l22 -24 -47 7 c-28 4 -48 3 -48 -2 0
-5 16 -24 35 -43 38 -37 48 -31 13 8 l-23 24 55 -7 55 -7 -40 41 c-40 42 -45
46 -45 34z"/>
<path d="M3745 3726 c-34 -52 36 -114 79 -70 34 33 7 94 -42 94 -12 0 -29 -11
-37 -24z m69 -2 c29 -29 12 -64 -31 -64 -31 0 -44 47 -18 67 24 17 30 16 49
-3z"/>
<path d="M1110 3671 c0 -16 43 -101 51 -101 4 0 5 8 3 18 -5 21 15 48 41 54
14 3 8 8 -23 17 -24 7 -50 15 -58 18 -8 3 -14 0 -14 -6z m50 -21 c12 -7 12
-12 2 -22 -10 -10 -15 -10 -22 2 -19 29 -9 39 20 20z"/>
<path d="M3868 3602 c-39 -28 -52 -50 -19 -32 16 8 21 6 26 -9 3 -10 3 -27 -1
-37 -5 -18 -5 -18 9 -1 8 9 21 17 29 17 9 0 21 7 29 16 10 13 10 20 -3 42 -22
35 -27 36 -70 4z m57 -13 c9 -28 -9 -46 -30 -29 -18 15 -20 36 -2 43 21 9 26
7 32 -14z"/>
<path d="M1030 3574 c0 -4 7 -12 16 -19 14 -9 14 -16 5 -33 -13 -25 -31 -28
-49 -10 -8 8 -12 8 -12 1 0 -11 70 -63 85 -63 4 0 0 9 -9 19 -14 15 -15 24 -6
40 12 23 25 27 35 11 3 -5 12 -10 18 -10 7 1 -1 12 -18 26 -36 30 -65 47 -65
38z"/>
<path d="M3997 3492 c3 -13 -6 -24 -31 -37 -20 -11 -36 -23 -36 -28 0 -5 18 2
40 14 34 19 41 20 56 8 18 -15 18 -12 -5 34 -16 30 -32 37 -24 9z"/>
<path d="M925 3409 c-9 -17 -14 -33 -11 -36 3 -3 8 1 12 10 5 15 10 14 46 -4
51 -26 61 -18 12 10 -23 14 -34 27 -30 36 10 28 -14 15 -29 -16z"/>
<path d="M4030 3370 c-33 -26 -14 -26 25 0 17 11 23 20 15 20 -8 0 -26 -9 -40
-20z"/>
<path d="M3985 3340 c3 -5 8 -10 11 -10 2 0 4 5 4 10 0 6 -5 10 -11 10 -5 0
-7 -4 -4 -10z"/>
<path d="M2347 3256 c-20 -20 -37 -41 -37 -46 0 -6 -17 -28 -37 -51 -97 -108
-289 -132 -324 -42 -21 57 30 110 81 83 25 -13 23 -43 -4 -48 -15 -3 -17 0
-12 14 7 18 6 18 -10 2 -22 -22 -11 -48 20 -48 31 0 60 40 51 69 -18 59 -102
79 -153 36 -75 -63 -36 -199 73 -254 57 -29 158 -38 232 -23 113 25 234 105
273 183 25 47 26 81 4 72 -10 -4 -15 -1 -14 8 5 33 -1 38 -20 19 -29 -29 -37
-25 -32 16 4 35 3 37 -21 30 -16 -4 -27 -1 -29 6 -2 6 -20 -5 -41 -26z m17
-38 c-51 -58 -68 -64 -43 -15 19 37 41 57 62 57 16 0 13 -7 -19 -42z"/>
<path d="M2610 3280 c0 -6 -10 -8 -26 -4 -25 7 -26 5 -22 -30 3 -31 2 -35 -14
-30 -14 4 -18 0 -18 -17 0 -12 -5 -38 -12 -56 -12 -32 -11 -35 31 -77 113
-115 326 -160 456 -95 109 54 146 197 68 259 -48 37 -131 15 -148 -41 -9 -29
20 -69 51 -69 31 0 42 26 20 48 -16 16 -17 16 -10 -2 5 -14 3 -17 -12 -14 -27
5 -29 35 -4 48 31 17 66 5 79 -28 28 -66 -33 -119 -125 -109 -102 11 -188 65
-240 154 -25 41 -74 83 -74 63z m57 -59 c45 -66 23 -70 -31 -5 -36 42 -37 45
-15 42 13 -2 33 -18 46 -37z"/>
<path d="M2910 2743 c-59 -10 -91 -27 -123 -63 -96 -106 -55 -309 71 -351 20
-7 69 -13 107 -13 102 1 177 44 205 119 15 39 15 144 1 188 -13 37 -67 92
-105 107 -30 11 -125 19 -156 13z m111 -122 c26 -26 29 -36 29 -90 0 -80 -28
-116 -90 -116 -62 0 -90 36 -90 116 0 54 3 64 29 90 20 20 39 29 61 29 22 0
41 -9 61 -29z"/>
<path d="M3865 2736 c-68 -19 -105 -61 -105 -120 0 -80 37 -107 198 -147 36
-8 43 -14 40 -32 -3 -19 -9 -22 -53 -22 -42 0 -52 3 -60 23 -9 19 -17 22 -72
22 -70 0 -74 -5 -49 -65 25 -60 137 -95 242 -76 72 14 110 42 125 92 28 92
-16 145 -145 173 -85 19 -112 40 -81 62 29 21 63 17 89 -11 20 -21 32 -25 80
-25 64 0 70 11 37 66 -36 58 -150 86 -246 60z"/>
<path d="M880 2530 l0 -210 70 0 70 0 0 75 c0 71 1 75 23 75 18 0 30 -14 60
-75 l37 -75 76 0 76 0 -46 85 -45 86 35 32 c68 62 51 168 -31 203 -25 10 -76
14 -180 14 l-145 0 0 -210z m255 75 c0 -30 -1 -30 -57 -33 l-58 -3 0 36 0 36
58 -3 c56 -3 57 -3 57 -33z"/>
<path d="M1360 2530 l0 -210 185 0 185 0 0 50 0 50 -121 0 -120 0 3 33 3 32
98 3 97 3 0 44 0 45 -100 0 -100 0 0 30 0 30 115 0 115 0 0 50 0 50 -180 0
-180 0 0 -210z"/>
<path d="M1766 2728 c4 -7 41 -64 81 -126 l73 -113 0 -84 0 -85 70 0 70 0 0
82 0 82 67 105 c36 59 73 116 81 129 l14 22 -73 0 -74 0 -41 -71 -42 -71 -38
71 -39 71 -78 0 c-60 0 -76 -3 -71 -12z"/>
<path d="M2270 2530 l0 -210 118 0 c145 1 201 18 246 73 26 33 31 48 34 107 6
94 -3 134 -39 175 -43 48 -105 65 -246 65 l-113 0 0 -210z m241 91 c21 -17 24
-28 24 -91 0 -63 -3 -74 -24 -91 -14 -11 -39 -19 -62 -19 l-39 0 0 110 0 110
39 0 c23 0 48 -8 62 -19z"/>
<path d="M3260 2530 l0 -210 60 0 59 0 3 101 3 101 88 -101 88 -101 60 0 59 0
0 210 0 210 -65 0 -64 0 -3 -100 -3 -101 -85 101 -84 100 -58 0 -58 0 0 -210z"/>
<path d="M1769 2131 c9 -6 11 -16 7 -27 -6 -15 -4 -16 5 -7 14 14 5 43 -13 43
-10 0 -9 -3 1 -9z"/>
<path d="M2420 2136 c0 -2 8 -10 18 -17 15 -13 16 -12 3 4 -13 16 -21 21 -21
13z"/>
<path d="M2723 2085 c0 -27 2 -38 4 -22 2 15 2 37 0 50 -2 12 -4 0 -4 -28z"/>
<path d="M2350 2091 c0 -11 4 -22 9 -25 4 -3 6 6 3 19 -5 30 -12 33 -12 6z"/>
<path d="M2890 2091 c0 -11 4 -22 9 -25 4 -3 6 6 3 19 -5 30 -12 33 -12 6z"/>
<path d="M1978 2069 c5 -35 8 -36 14 -5 3 14 0 27 -7 29 -7 3 -10 -5 -7 -24z"/>
<path d="M2019 2068 c4 -28 6 -29 9 -9 2 13 0 27 -5 32 -6 6 -7 -3 -4 -23z"/>
<path d="M2218 2069 c5 -35 8 -36 14 -5 3 14 0 27 -7 29 -7 3 -10 -5 -7 -24z"/>
<path d="M2259 2068 c4 -28 6 -29 9 -9 2 13 0 27 -5 32 -6 6 -7 -3 -4 -23z"/>
<path d="M1812 2065 c0 -16 2 -22 5 -12 2 9 2 23 0 30 -3 6 -5 -1 -5 -18z"/>
<path d="M1864 2075 c-8 -19 4 -35 24 -34 14 1 14 2 -2 6 -15 4 -16 7 -5 14
11 7 11 9 1 9 -7 0 -10 5 -7 10 3 6 4 10 0 10 -3 0 -8 -7 -11 -15z"/>
<path d="M1940 2065 c0 -14 2 -25 4 -25 2 0 6 11 8 25 3 14 1 25 -3 25 -5 0
-9 -11 -9 -25z"/>
<path d="M2062 2065 c0 -16 2 -22 5 -12 2 9 2 23 0 30 -3 6 -5 -1 -5 -18z"/>
<path d="M2101 2068 c-1 -21 4 -28 17 -28 11 0 13 3 6 8 -7 4 -14 16 -17 27
-4 15 -5 14 -6 -7z"/>
<path d="M2142 2065 c0 -16 2 -22 5 -12 2 9 2 23 0 30 -3 6 -5 -1 -5 -18z"/>
<path d="M2180 2065 c0 -14 2 -25 4 -25 2 0 6 11 8 25 3 14 1 25 -3 25 -5 0
-9 -11 -9 -25z"/>
<path d="M2565 2079 c-4 -6 -5 -12 -2 -15 2 -3 7 2 10 11 7 17 1 20 -8 4z"/>
<path d="M2607 2071 c4 -14 -1 -21 -19 -24 -21 -4 -20 -4 5 -6 23 -1 27 3 27
24 0 14 -4 25 -9 25 -5 0 -7 -9 -4 -19z"/>
<path d="M2682 2065 c0 -16 2 -22 5 -12 2 9 2 23 0 30 -3 6 -5 -1 -5 -18z"/>
<path d="M3073 2074 c-8 -20 10 -37 33 -31 15 4 14 5 -5 6 -18 1 -22 5 -18 21
6 24 -1 27 -10 4z"/>
<path d="M3116 2077 c3 -10 9 -15 12 -12 3 3 0 11 -7 18 -10 9 -11 8 -5 -6z"/>
<path d="M2960 2066 c0 -8 -10 -17 -22 -19 -20 -4 -19 -4 5 -6 21 -1 27 4 27
19 0 11 -2 20 -5 20 -3 0 -5 -6 -5 -14z"/>
<path d="M3248 2068 c10 -13 10 -17 0 -21 -9 -4 -9 -6 -1 -6 20 -2 24 16 5 30
-15 13 -16 12 -4 -3z"/>
<path d="M2426 2055 c-20 -15 -20 -15 0 -15 12 0 21 7 21 15 0 8 -1 15 -1 15
-1 0 -10 -7 -20 -15z"/>
<path d="M2785 2049 c-4 -6 -5 -12 -2 -15 2 -3 7 2 10 11 7 17 1 20 -8 4z"/>
<path d="M3007 2048 c2 -5 10 -8 18 -8 8 0 16 3 18 8 3 4 -5 7 -18 7 -13 0
-21 -3 -18 -7z"/>
<path d="M3157 2048 c2 -5 10 -8 18 -8 8 0 16 3 18 8 3 4 -5 7 -18 7 -13 0
-21 -3 -18 -7z"/>
<path d="M2498 2043 c7 -3 16 -2 19 1 4 3 -2 6 -13 5 -11 0 -14 -3 -6 -6z"/>
<path d="M2250 1905 c0 -30 3 -35 23 -34 16 1 18 2 5 6 -10 2 -18 8 -18 13 0
5 8 11 18 13 16 4 16 5 0 6 -10 0 -18 5 -18 10 0 5 8 12 18 14 13 4 11 5 -5 6
-20 1 -23 -4 -23 -34z"/>
<path d="M2330 1925 c0 -9 7 -18 15 -21 20 -8 19 -21 -2 -27 -16 -4 -16 -5 -1
-6 26 -2 33 20 12 36 -16 12 -17 15 -4 23 13 8 12 10 -2 10 -10 0 -18 -7 -18
-15z"/>
<path d="M2397 1932 c6 -4 13 -21 16 -37 l4 -30 2 32 c0 17 7 34 14 36 6 3 -1
6 -18 6 -16 0 -25 -3 -18 -7z"/>
<path d="M2541 1914 c0 -11 3 -14 6 -6 3 7 2 16 -1 19 -3 4 -6 -2 -5 -13z"/>
<path d="M2566 1913 c-3 -10 -9 -24 -12 -30 -3 -7 0 -13 8 -13 7 0 14 13 15
30 2 34 -2 38 -11 13z"/>
<path d="M2610 1919 c0 -5 5 -7 10 -4 6 3 10 8 10 11 0 2 -4 4 -10 4 -5 0 -10
-5 -10 -11z"/>
<path d="M2647 1909 c4 -13 8 -18 11 -10 2 7 -1 18 -6 23 -8 8 -9 4 -5 -13z"/>
<path d="M2680 1915 c0 -8 2 -15 4 -15 2 0 6 7 10 15 3 8 1 15 -4 15 -6 0 -10
-7 -10 -15z"/>
<path d="M2710 1912 c0 -10 -5 -23 -12 -30 -9 -9 -7 -12 13 -11 13 0 19 3 13
5 -6 3 -9 16 -6 29 2 14 2 25 -2 25 -3 0 -6 -8 -6 -18z"/>
<path d="M2760 1905 c-10 -12 -10 -15 3 -15 8 0 18 -6 20 -12 3 -7 6 -1 6 15
1 30 -10 35 -29 12z"/>
<path d="M2613 1890 c2 -8 12 -16 23 -17 13 -2 15 -1 4 4 -8 3 -19 11 -23 17
-6 7 -7 6 -4 -4z"/>
</g>
</svg>
